<svg xmlns="http://www.w3.org/2000/svg" xmlns:xlink="http://www.w3.org/1999/xlink" width="123" height="144" viewBox="0 0 123 144">
  <defs>
    <style>
      .cls-1 {
        fill: #bb1839;
        fill-rule: evenodd;
        filter: url(#filter);
      }
    </style>
    <filter id="filter" x="1285" y="1179" width="123" height="144" filterUnits="userSpaceOnUse">
      <feOffset result="offset" dx="-9.508" dy="8.866" in="SourceAlpha"/>
      <feGaussianBlur result="blur" stdDeviation="6.164"/>
      <feFlood result="flood" flood-opacity="0.11"/>
      <feComposite result="composite" operator="in" in2="blur"/>
      <feBlend result="blend" in="SourceGraphic"/>
    </filter>
  </defs>
  <path class="cls-1" d="M1338.98,1249.77h17.51a0.9,0.9,0,0,0,.9-0.9v-8.19a0.9,0.9,0,0,0-.9-0.91h-17.51a0.907,0.907,0,0,0-.91.91v8.19A0.9,0.9,0,0,0,1338.98,1249.77Zm16.6-8.19v6.39h-15.7v-6.39h15.7Zm-16.6-6.56h17.51a0.905,0.905,0,0,0,0-1.81h-17.51A0.905,0.905,0,1,0,1338.98,1235.02Zm3.25-11.13h11a0.905,0.905,0,1,0,0-1.81h-11A0.905,0.905,0,1,0,1342.23,1223.89Zm2.18,1.85a0.905,0.905,0,1,0,0,1.81h6.64a0.905,0.905,0,1,0,0-1.81h-6.64Zm-2.76,32.72h2.21v-1.81h-2.21v1.81Zm4.98,0h2.2v-1.81h-2.2v1.81Zm4.98,0h2.2v-1.81h-2.2v1.81Zm-9.96,4.38h2.21v-1.81h-2.21v1.81Zm4.98,0h2.2v-1.81h-2.2v1.81Zm4.98,0h2.2v-1.81h-2.2v1.81Zm-9.96,4.39h2.21v-1.81h-2.21v1.81Zm4.98,0h2.2v-1.81h-2.2v1.81Zm4.98,0h2.2v-1.81h-2.2v1.81Zm28.02-50.78-7.59-8.92a0.9,0.9,0,0,0-1.38,0l-7.6,8.92a0.9,0.9,0,0,0,.69,1.49h3.74v18.32h-4.31v-6.92a2.388,2.388,0,0,0-2.39-2.38h-3.4v-7.44a4.432,4.432,0,0,0-4.44-4.42h-10.44a4.432,4.432,0,0,0-4.44,4.42v7.44h-3.4a2.379,2.379,0,0,0-2.38,2.38v43.68a2.379,2.379,0,0,0,2.38,2.38h26.12a2.388,2.388,0,0,0,2.39-2.38v-4.4h9.23a2.8,2.8,0,0,0,2.8-2.78v-47.9h3.73a0.918,0.918,0,0,0,.83-0.52A0.928,0.928,0,0,0,1379.63,1216.45Zm-6.24.59v48.8a0.982,0.982,0,0,1-.98.98h-9.23v-28.76h4.31v2.62a0.905,0.905,0,0,0,1.81,0v-23.64a0.9,0.9,0,0,0-.9-0.91h-2.69l5.64-6.62,5.63,6.62h-2.68A0.913,0.913,0,0,0,1373.39,1217.04Zm-39.29,12.3a0.57,0.57,0,0,1,.57-0.57h3.4v2.48a0.905,0.905,0,1,0,1.81,0v-11.73a2.631,2.631,0,0,1,2.63-2.62h10.44a2.631,2.631,0,0,1,2.63,2.62v11.73a0.905,0.905,0,1,0,1.81,0v-2.48h3.4a0.563,0.563,0,0,1,.57.57v43.68a0.563,0.563,0,0,1-.57.57h-26.12a0.57,0.57,0,0,1-.57-0.57v-43.68Z" transform="translate(-1285 -1179)"/>
</svg>
