<svg xmlns="http://www.w3.org/2000/svg" width="61.656" height="61.66" viewBox="0 0 61.656 61.66">
  <defs>
    <style>
      .cls-1 {
        fill: #fff;
        fill-rule: evenodd;
      }
    </style>
  </defs>
  <path id="Shape_376_copy" data-name="Shape 376 copy" class="cls-1" d="M345.617,3720a30.835,30.835,0,1,0,30.8,30.83A30.89,30.89,0,0,0,345.617,3720Zm0,57.98a27.145,27.145,0,1,1,27.145-27.15A27.172,27.172,0,0,1,345.617,3777.98Zm0.443-10.75c-6.1,0-11.165-3.79-11.769-8.81a9.5,9.5,0,0,1,.307-4.13h15.637v-6.92H334.6a9.452,9.452,0,0,1-.307-4.12c0.612-5.18,5.207-8.81,11.124-8.81a9.883,9.883,0,0,1,8.667,4.08l5.464-4.31a16.81,16.81,0,0,0-14.131-6.71c-9.422,0-16.955,6.28-18.02,14.92a20.383,20.383,0,0,0-.136,2.21,14.094,14.094,0,0,1,0,12.4,20.566,20.566,0,0,0,.136,2.22c1.037,8.5,9.054,14.91,18.665,14.91,6.2,0,11.31-2.33,14.783-6.7l-5.447-4.32C353.279,3765.86,350.124,3767.23,346.06,3767.23Z" transform="translate(-314.75 -3720)"/>
</svg>
