<svg xmlns="http://www.w3.org/2000/svg" width="16" height="14.88" viewBox="0 0 16 14.88">
  <defs>
    <style>
      .cls-1 {
        fill: #d92549;
        fill-rule: evenodd;
      }
    </style>
  </defs>
  <path id="Shape_390_copy_2" data-name="Shape 390 copy 2" class="cls-1" d="M326.077,3061.94v0.82a1.508,1.508,0,0,1-.52,1.16,0.146,0.146,0,0,1-.048.04,1.272,1.272,0,0,1-.776.28h-0.2a1.416,1.416,0,0,1-1.344-1.48v-0.82h-6.067v0.79a1.572,1.572,0,0,1-.47,1.13,0.581,0.581,0,0,1-.169.13,1.219,1.219,0,0,1-.718.23h-0.173a1.431,1.431,0,0,1-1.358-1.49v-0.79H312V3075h16v-13.06h-1.926Zm0.585,11.59H313.341v-8.5h13.321v8.5Zm-10.9-13.39h-0.173a0.757,0.757,0,0,0-.723.79v1.8a0.757,0.757,0,0,0,.723.79h0.173a0.756,0.756,0,0,0,.722-0.79v-1.8A0.756,0.756,0,0,0,315.765,3060.14Zm8.968,0.02h-0.2a0.739,0.739,0,0,0-.709.77v1.83a0.748,0.748,0,0,0,.709.78h0.2a0.748,0.748,0,0,0,.709-0.78v-1.83A0.739,0.739,0,0,0,324.733,3060.16Z" transform="translate(-312 -3060.12)"/>
</svg>
