<svg xmlns="http://www.w3.org/2000/svg" width="58.88" height="57.91" viewBox="0 0 58.88 57.91">
  <defs>
    <style>
      .cls-1 {
        fill: #bb1839;
        fill-rule: evenodd;
      }
    </style>
  </defs>
  <path class="cls-1" d="M1033.98,1267.26a0.871,0.871,0,0,0-.87.87v2.33a1.069,1.069,0,0,1-.81,1.04,42.353,42.353,0,0,1-21.75,0,1.072,1.072,0,0,1-.8-1.04v-2.33a0.875,0.875,0,0,0-1.75,0v2.33a2.824,2.824,0,0,0,2.1,2.73,44.07,44.07,0,0,0,22.65,0,2.833,2.833,0,0,0,2.11-2.73v-2.33A0.879,0.879,0,0,0,1033.98,1267.26Zm0-7.16a0.871,0.871,0,0,0-.87.87v2.33a1.09,1.09,0,0,1-.81,1.05,42.643,42.643,0,0,1-21.75,0,1.092,1.092,0,0,1-.8-1.05v-2.33a0.875,0.875,0,0,0-1.75,0v2.33a2.824,2.824,0,0,0,2.1,2.73,44.07,44.07,0,0,0,22.65,0,2.833,2.833,0,0,0,2.11-2.73v-2.33A0.879,0.879,0,0,0,1033.98,1260.1Zm0-7.16a0.871,0.871,0,0,0-.87.87v2.33a1.09,1.09,0,0,1-.81,1.05,42.392,42.392,0,0,1-10.87,1.42h0a42.411,42.411,0,0,1-10.88-1.42,1.092,1.092,0,0,1-.8-1.05v-2.33a0.875,0.875,0,0,0-1.75,0v2.33a2.824,2.824,0,0,0,2.1,2.73,44.07,44.07,0,0,0,22.65,0,2.833,2.833,0,0,0,2.11-2.73v-2.33A0.879,0.879,0,0,0,1033.98,1252.94Zm-3.4-6.69a38.95,38.95,0,0,0-18.3,0c-2.8.8-4.28,1.95-4.28,3.33s1.48,2.52,4.28,3.33a39.3,39.3,0,0,0,18.3,0c2.8-.81,4.28-1.96,4.28-3.33S1033.38,1247.05,1030.58,1246.25Zm-0.51,4.99a37.46,37.46,0,0,1-17.28,0c-2.48-.7-3.04-1.45-3.04-1.66s0.56-.97,3.04-1.67a37.825,37.825,0,0,1,17.28,0c2.48,0.7,3.04,1.46,3.04,1.67S1032.55,1250.54,1030.07,1251.24Zm33.96-34.49h-30.07a2.825,2.825,0,0,0-2.83,2.82v25.02a0.875,0.875,0,0,0,1.75,0v-25.02a1.082,1.082,0,0,1,1.08-1.08h30.07a1.082,1.082,0,0,1,1.08,1.08v42.93a1.076,1.076,0,0,1-1.08,1.08h-27.32a0.875,0.875,0,0,0,0,1.75h27.32a2.834,2.834,0,0,0,2.83-2.83v-42.93A2.825,2.825,0,0,0,1064.03,1216.75Zm-27.26,4.75a0.873,0.873,0,0,0-.87.88v7.59a0.871,0.871,0,0,0,.87.87h24.45a0.879,0.879,0,0,0,.88-0.87v-7.59a0.875,0.875,0,1,0-1.75,0v6.72h-22.7v-6.72A0.881,0.881,0,0,0,1036.77,1221.5Zm21.6,20.27a0.875,0.875,0,0,0,0-1.75h-5.01a0.875,0.875,0,1,0,0,1.75h5.01Zm-16.24-4.24a0.879,0.879,0,0,0-.88.87v1.62h-1.62a0.875,0.875,0,1,0,0,1.75h1.62v1.62a0.875,0.875,0,0,0,1.75,0v-1.62h1.63a0.875,0.875,0,1,0,0-1.75H1043v-1.62A0.871,0.871,0,0,0,1042.13,1237.53Zm2.64,15.11a0.854,0.854,0,0,0-.87-0.87,0.886,0.886,0,0,0-.62.25l-1.15,1.15-1.15-1.15a0.9,0.9,0,0,0-.62-0.25,0.886,0.886,0,0,0-.62.25,0.869,0.869,0,0,0,0,1.24l1.15,1.14-1.15,1.15a0.87,0.87,0,0,0,.62,1.49,0.9,0.9,0,0,0,.62-0.25l1.15-1.15,1.15,1.15a0.886,0.886,0,0,0,.62.25,0.9,0.9,0,0,0,.62-0.25,0.881,0.881,0,0,0,0-1.24l-1.15-1.15,1.15-1.14A0.9,0.9,0,0,0,1044.77,1252.64Zm13.93,1.7a0.871,0.871,0,0,0-.87-0.87h-5.01a0.875,0.875,0,0,0,0,1.75h5.01A0.879,0.879,0,0,0,1058.7,1254.34Zm4.36-6.98a0.871,0.871,0,0,0-.87-0.87h-12.18v-12.28a0.875,0.875,0,0,0-1.75,0v12.28h-8.34a0.87,0.87,0,1,0,0,1.74h8.34v12.29a0.875,0.875,0,0,0,1.75,0v-12.29h12.18A0.871,0.871,0,0,0,1063.06,1247.36Zm-6.63,4.61a1.055,1.055,0,1,0-1.05,1.05A1.05,1.05,0,0,0,1056.43,1251.97Zm-2.11,4.92a1.055,1.055,0,1,0,1.06-1.05A1.052,1.052,0,0,0,1054.32,1256.89Zm-41.28-13.57a0.871,0.871,0,0,0,.87-0.87v-1.97a3.57,3.57,0,0,1,1.28-2.73l2.96-2.48a4.97,4.97,0,0,0,2.89.95,5.054,5.054,0,0,0,2.89-.94l2.89,2.47a3.558,3.558,0,0,1,1.26,2.71v1.99a0.875,0.875,0,0,0,1.75,0v-1.99a5.285,5.285,0,0,0-1.87-4.04l-2.77-2.36a7.036,7.036,0,0,0,1.43-4.3c0-3.56-2.5-6.46-5.58-6.46s-5.57,2.9-5.57,6.46a7,7,0,0,0,1.42,4.29l-2.83,2.36a5.342,5.342,0,0,0-1.9,4.07v1.97A0.873,0.873,0,0,0,1013.04,1243.32Zm8-18.27c2.11,0,3.83,2.11,3.83,4.71s-1.72,4.71-3.83,4.71-3.82-2.11-3.82-4.71S1018.93,1225.05,1021.04,1225.05Z" transform="translate(-1008 -1216.75)"/>
</svg>
