<svg 
 xmlns="http://www.w3.org/2000/svg"
 xmlns:xlink="http://www.w3.org/1999/xlink"
 width="80px" height="79px">
<defs>
<filter filterUnits="userSpaceOnUse" id="Filter_0" x="0px" y="0px" width="80px" height="79px"  >
    <feOffset in="SourceAlpha" dx="6.582" dy="6.138" />
    <feGaussianBlur result="blurOut" stdDeviation="3" />
    <feFlood flood-color="rgb(0, 0, 0)" result="floodOut" />
    <feComposite operator="atop" in="floodOut" in2="blurOut" />
    <feComponentTransfer><feFuncA type="linear" slope="0.39"/></feComponentTransfer>
    <feMerge>
    <feMergeNode/>
    <feMergeNode in="SourceGraphic"/>
  </feMerge>
</filter>

</defs>
<g filter="url(#Filter_0)">
<path fill-rule="evenodd"  fill="rgb(255, 255, 255)"
 d="M32.617,63.668 C15.598,63.668 1.750,49.820 1.750,32.830 C1.750,15.840 15.598,2.001 32.617,2.001 C49.605,2.001 63.416,15.840 63.416,32.830 C63.416,49.820 49.605,63.668 32.617,63.668 ZM32.617,5.685 C17.605,5.685 5.446,17.866 5.446,32.830 C5.446,47.798 17.605,59.979 32.617,59.979 C47.578,59.979 59.762,47.798 59.762,32.830 C59.762,17.866 47.578,5.685 32.617,5.685 ZM33.060,49.230 C37.124,49.230 40.279,47.859 42.396,45.139 L47.843,49.460 C44.370,53.834 39.262,56.159 33.060,56.159 C23.449,56.159 15.432,49.747 14.395,41.245 C14.314,40.505 14.259,39.760 14.259,39.033 C14.259,36.680 14.860,34.621 15.696,32.830 C14.860,31.027 14.259,28.989 14.259,26.631 C14.259,25.896 14.314,25.159 14.395,24.421 C15.460,15.780 22.993,9.503 32.415,9.503 C38.413,9.503 42.925,11.640 46.546,16.207 L41.082,20.516 C38.808,17.627 36.300,16.444 32.415,16.444 C26.498,16.444 21.903,20.065 21.291,25.249 C21.072,27.102 21.291,28.448 21.598,29.369 L37.235,29.369 L37.235,36.290 L21.598,36.290 C21.291,37.214 21.072,38.567 21.291,40.422 C21.895,45.438 26.964,49.230 33.060,49.230 Z"/>
</g>
</svg>