<svg xmlns="http://www.w3.org/2000/svg" width="43.157" height="61.38" viewBox="0 0 43.157 61.38">
  <defs>
    <style>
      .cls-1 {
        fill: #bb1839;
        fill-rule: evenodd;
      }
    </style>
  </defs>
  <path class="cls-1" d="M708.537,1240.79a0.828,0.828,0,0,0-.826-0.83h-7.162a0.828,0.828,0,0,0-.827.83v7.11h-6.334a0.834,0.834,0,0,0-.827.83v16.74a0.827,0.827,0,1,0,1.654,0v-15.91h5.507v16.01a0.827,0.827,0,0,0,1.654,0v-23.96h5.508v23.96a0.827,0.827,0,0,0,1.653,0v-9.76h5.508v9.66a0.827,0.827,0,1,0,1.654,0v-10.48a0.828,0.828,0,0,0-.827-0.83h-6.335v-13.37Zm18.7-22.68-7.863-9.28a0.814,0.814,0,0,0-1.262,0l-7.866,9.28a0.845,0.845,0,0,0-.12.89,0.833,0.833,0,0,0,.751.48h3.98v2.19a0.827,0.827,0,0,0,1.654,0v-3.02a0.828,0.828,0,0,0-.827-0.83h-3.023l6.082-7.18,6.08,7.18H721.8a0.828,0.828,0,0,0-.827.83v49.62H685.939v-35.54a1.581,1.581,0,0,1,1.576-1.58h3.016a0.827,0.827,0,0,0,.826-0.83v-3.02a1.572,1.572,0,0,1,1.576-1.57h12.28a0.83,0.83,0,0,0,0-1.66h-12.28a3.234,3.234,0,0,0-3.229,3.23v2.19h-2.189a3.236,3.236,0,0,0-3.229,3.24v36.36a0.828,0.828,0,0,0,.827.83H721.8a0.827,0.827,0,0,0,.826-0.83v-49.61h3.982a0.832,0.832,0,0,0,.75-0.48A0.843,0.843,0,0,0,727.24,1218.11Zm-19.67,7.11a0.6,0.6,0,0,0,.072.13,0.723,0.723,0,0,0,.112.14,0.909,0.909,0,0,0,.12.1,0.687,0.687,0,0,0,.141.07,0.76,0.76,0,0,0,.155.05,0.771,0.771,0,0,0,.162.02,0.844,0.844,0,0,0,.585-0.24,1.463,1.463,0,0,0,.1-0.12,0.582,0.582,0,0,0,.081-0.15,0.811,0.811,0,0,0,.047-0.16,0.727,0.727,0,0,0,.018-0.16,0.842,0.842,0,0,0-.829-0.83,0.844,0.844,0,0,0-.159.02c-0.058.01-.108,0.03-0.149,0.04a0.492,0.492,0,0,0-.144.08,0.551,0.551,0,0,0-.132.11,0.817,0.817,0,0,0-.24.58,0.725,0.725,0,0,0,.015.16A0.811,0.811,0,0,0,707.57,1225.22Zm6.485-.32a0.828,0.828,0,1,0-.826.83A0.829,0.829,0,0,0,714.055,1224.9Zm-3.278-.83a0.83,0.83,0,1,0,.831.83A0.827,0.827,0,0,0,710.777,1224.07Zm4.9,1.66a0.83,0.83,0,1,0-.828-0.83A0.828,0.828,0,0,0,715.676,1225.73Zm1.761-.37a0.791,0.791,0,0,0,.1.13,1.19,1.19,0,0,0,.128.1,0.87,0.87,0,0,0,.135.07,0.565,0.565,0,0,0,.158.05,0.918,0.918,0,0,0,.164.02,0.841,0.841,0,0,0,.582-0.24,1.081,1.081,0,0,0,.105-0.13,0.861,0.861,0,0,0,.079-0.15,1.416,1.416,0,0,0,.044-0.15,0.791,0.791,0,0,0,.015-0.16,0.817,0.817,0,0,0-.24-0.58,0.438,0.438,0,0,0-.121-0.1,0.691,0.691,0,0,0-.147-0.08,0.75,0.75,0,0,0-.156-0.05,0.875,0.875,0,0,0-.162-0.02,0.964,0.964,0,0,0-.165.02,0.85,0.85,0,0,0-.144.04,0.911,0.911,0,0,0-.151.08,1,1,0,0,0-.123.1,0.849,0.849,0,0,0-.244.59,0.69,0.69,0,0,0,.016.15,0.538,0.538,0,0,0,.046.16A0.668,0.668,0,0,0,717.437,1225.36Z" transform="translate(-684.281 -1208.53)"/>
</svg>
