<svg xmlns="http://www.w3.org/2000/svg" width="67.719" height="57.47" viewBox="0 0 67.719 57.47">
  <defs>
    <style>
      .cls-1 {
        fill: #bb1839;
        fill-rule: evenodd;
      }
    </style>
  </defs>
  <path class="cls-1" d="M422.421,1236.94H391.686a0.859,0.859,0,0,0-.863.86v30.74a0.859,0.859,0,0,0,.863.86h30.735a0.858,0.858,0,0,0,.862-0.86V1237.8A0.858,0.858,0,0,0,422.421,1236.94Zm-29.873,15.37v-13.65h13.809v13.65H392.548Zm0,15.37v-13.65h13.809v13.65H392.548Zm15.534-15.37v-13.65h13.476v13.65H408.082Zm0,15.37v-13.65h13.476v13.65H408.082Zm9.885-22.93h-5.831a0.86,0.86,0,1,0,0,1.72h5.831A0.86,0.86,0,1,0,417.967,1244.75Zm-16,0h-2.053v-2.06a0.863,0.863,0,0,0-1.725,0v2.06h-2.053a0.86,0.86,0,1,0,0,1.72h2.053v2.06a0.863,0.863,0,0,0,1.725,0v-2.06h2.053A0.86,0.86,0,1,0,401.97,1244.75Zm-0.244,13.98a0.846,0.846,0,0,0-1.22,0l-1.452,1.45-1.451-1.45a0.846,0.846,0,0,0-1.22,0,0.862,0.862,0,0,0,0,1.22l1.452,1.45-1.452,1.45a0.863,0.863,0,0,0,1.22,1.22l1.451-1.45,1.452,1.45a0.863,0.863,0,1,0,1.22-1.22l-1.452-1.45,1.452-1.45A0.864,0.864,0,0,0,401.726,1258.73Zm15.68,1.73h-5.832a0.865,0.865,0,0,0,0,1.73h5.832A0.865,0.865,0,0,0,417.406,1260.46ZM414.49,1263a1.021,1.021,0,0,0-.734.31,1.041,1.041,0,0,0,0,1.47,1.038,1.038,0,0,0,1.772-.74,1.007,1.007,0,0,0-.3-0.73A1.021,1.021,0,0,0,414.49,1263Zm0-3.3a1.031,1.031,0,0,0,1.038-1.04,1.007,1.007,0,0,0-.3-0.73,1.024,1.024,0,0,0-1.468,0,1.041,1.041,0,0,0,0,1.47A1.054,1.054,0,0,0,414.49,1259.7Zm-26.637-21.04a0.86,0.86,0,1,0,0-1.72H357.3v-23.27H399.18v20.56a0.863,0.863,0,0,0,1.725,0v-21.42a0.859,0.859,0,0,0-.863-0.86h-43.6a0.858,0.858,0,0,0-.862.86v24.99a0.865,0.865,0,0,0,.862.86h7.529v7.53a0.859,0.859,0,0,0,.863.86h6.942v7.09a0.865,0.865,0,0,0,.862.86h15.218a0.86,0.86,0,1,0,0-1.72H373.5v-6.23h14.355a0.86,0.86,0,1,0,0-1.72h-22.16v-6.67h22.16ZM372.6,1218.8a0.852,0.852,0,0,0-.252-0.61,0.869,0.869,0,0,0-1.22,0,10.076,10.076,0,0,0,0,14.23,0.869,0.869,0,0,0,1.22,0,0.864,0.864,0,0,0,0-1.22,8.347,8.347,0,0,1,0-11.79A0.852,0.852,0,0,0,372.6,1218.8Zm11.281,13.01a0.853,0.853,0,0,0,.253.61,0.869,0.869,0,0,0,1.22,0,10.064,10.064,0,0,0,0-14.23,0.868,0.868,0,0,0-1.219,0,0.862,0.862,0,0,0,0,1.22,8.339,8.339,0,0,1,0,11.79A0.853,0.853,0,0,0,383.881,1231.81Zm-5.763-10.73a0.761,0.761,0,0,0,.246,0,1.687,1.687,0,0,1,1.554,1.67,0.863,0.863,0,1,0,1.725,0,3.413,3.413,0,0,0-2.54-3.28v-0.67a0.863,0.863,0,0,0-1.725,0v0.67a3.412,3.412,0,0,0-2.539,3.28c0,2.34,2.359,3.11,3.134,3.36,1.795,0.59,1.945,1.18,1.945,1.73a1.677,1.677,0,0,1-3.354,0,0.863,0.863,0,1,0-1.725,0,3.414,3.414,0,0,0,2.539,3.28v0.69a0.863,0.863,0,0,0,1.725,0v-0.69a3.413,3.413,0,0,0,2.54-3.28c0-2.08-1.675-2.89-3.135-3.37-1.723-.56-1.944-1.21-1.944-1.72A1.687,1.687,0,0,1,378.118,1221.08Z" transform="translate(-355.562 -1211.94)"/>
</svg>
